<svg width="538" height="530" viewBox="0 0 538 530" fill="none" xmlns="http://www.w3.org/2000/svg">
<path opacity="0.03" d="M387.32 506.225L324.317 527.919C306.949 533.899 287.949 524.632 281.968 507.264L243.686 396.084L166.433 484.866C160.567 491.451 152.357 495.48 143.559 496.091C134.761 496.701 126.073 493.845 119.354 488.132L69.0159 444.342C65.6834 441.479 62.9587 437.976 61.0028 434.042C59.047 430.108 57.8996 425.821 57.6286 421.436C57.0497 412.592 59.9433 404.008 65.7627 397.235L142.848 308.512L27.5016 286.049C18.8087 284.359 11.1376 279.299 6.16398 271.972C3.67635 268.345 1.94186 264.256 1.06323 259.946C0.184604 255.637 0.179709 251.195 1.04884 246.883L13.7426 181.483C15.4931 172.849 20.555 165.245 27.8442 160.298C35.1333 155.351 44.0698 153.456 52.7394 155.018L168.395 177.422L130.113 66.2425C124.132 48.8747 133.399 29.8744 150.767 23.8942L213.77 2.20048C231.138 -3.77975 250.138 5.48731 256.119 22.8552L294.401 134.035L371.654 45.2535C377.52 38.6678 385.73 34.6388 394.528 34.0283C403.326 33.4177 412.014 36.2742 418.733 41.9865L469.071 85.7771C475.815 91.5827 479.864 99.7259 480.458 108.683C481.041 117.506 478.118 126.203 472.324 132.884L395.239 221.607L510.585 244.07C519.383 245.81 526.948 250.793 531.944 258.14C536.983 265.543 538.806 274.452 537.045 283.257L524.344 348.636C522.593 357.269 517.533 364.874 510.247 369.824C502.96 374.774 494.026 376.676 485.355 375.122L369.692 352.697L407.974 463.876C413.955 481.244 404.688 500.245 387.32 506.225ZM244.309 363.781C245.688 363.304 247.147 363.103 248.604 363.19C250.06 363.278 251.485 363.652 252.797 364.292C254.108 364.932 255.281 365.824 256.247 366.918C257.212 368.012 257.953 369.286 258.425 370.666L302.969 500.033C303.928 502.818 305.954 505.107 308.602 506.399C311.249 507.69 314.301 507.876 317.085 506.918L380.089 485.224C382.873 484.265 385.163 482.239 386.455 479.592C387.746 476.944 387.932 473.893 386.973 471.108L342.429 341.741C341.787 339.898 341.644 337.918 342.013 336.001C342.382 334.084 343.251 332.299 344.531 330.825C345.812 329.352 347.459 328.243 349.306 327.611C351.153 326.979 353.134 326.845 355.049 327.225L489.466 353.293C495.405 354.372 501.358 350.373 502.548 344.349L515.242 278.948C515.537 277.523 515.542 276.053 515.256 274.626C514.971 273.198 514.401 271.843 513.58 270.641C511.868 268.16 509.255 266.447 506.298 265.866L372.14 239.732C370.222 239.366 368.435 238.501 366.96 237.223C365.485 235.944 364.373 234.299 363.737 232.454C363.102 230.608 362.965 228.627 363.341 226.712C363.717 224.796 364.592 223.014 365.877 221.545L455.541 118.32C457.507 116.054 458.5 113.103 458.304 110.109C458.218 108.665 457.842 107.253 457.198 105.957C456.554 104.661 455.656 103.508 454.556 102.567L404.197 58.7841C401.924 56.8745 398.997 55.9236 396.036 56.1324C393.074 56.3412 390.31 57.6933 388.327 59.9029L298.544 163.123C297.258 164.581 295.614 165.678 293.773 166.305C291.933 166.932 289.96 167.066 288.052 166.695C286.143 166.324 284.365 165.461 282.893 164.19C281.422 162.92 280.308 161.287 279.662 159.453L235.118 30.0864C234.159 27.3015 232.133 25.0116 229.486 23.7204C226.838 22.4292 223.786 22.2426 221.002 23.2015L157.998 44.8952C155.214 45.8541 152.924 47.8801 151.632 50.5273C150.341 53.1746 150.155 56.2264 151.114 59.0113L195.658 188.378C196.3 190.221 196.443 192.201 196.074 194.118C195.705 196.035 194.836 197.82 193.556 199.294C192.275 200.767 190.628 201.876 188.781 202.508C186.934 203.14 184.953 203.274 183.038 202.894L48.6206 176.826C45.705 176.322 42.7077 176.974 40.2651 178.644C37.8226 180.314 36.1271 182.871 35.5386 185.77L22.8448 251.171C22.5499 252.596 22.5451 254.066 22.8307 255.493C23.1164 256.921 23.6865 258.276 24.5072 259.478C26.2185 261.959 28.8318 263.672 31.7891 264.253L165.948 290.387C167.865 290.753 169.652 291.618 171.127 292.896C172.602 294.175 173.714 295.82 174.35 297.665C174.985 299.511 175.122 301.492 174.746 303.407C174.37 305.323 173.495 307.105 172.21 308.574L82.5465 411.799C80.5802 414.065 79.587 417.016 79.7827 420.01C79.8688 421.454 80.2451 422.866 80.8891 424.162C81.533 425.458 82.4314 426.611 83.5307 427.552L133.89 471.335C138.509 475.335 145.654 474.801 149.76 470.216L239.543 366.996C240.821 365.524 242.465 364.415 244.309 363.781Z" fill="white"/>
</svg>
